<?xml version="1.0"?>
<svg width="512" height="512" xmlns="http://www.w3.org/2000/svg">

 <g>
  <title>background</title>
  <rect fill="none" id="canvas_background" height="514" width="514" y="-1" x="-1"/>
 </g>
 <g>
  <title>Layer 1</title>
  <polygon id="svg_1" points="56,304.4499816894531 146.1999969482422,304.4499816894531 146.1999969482422,337.3499755859375 0,337.3499755859375 0,174.64999389648438 56,174.64999389648438 " fill="#4F2682"/>
  <path stroke="null" id="svg_2" d="m209.399994,174.649994l125.900024,0l0,33.199997l-99.300049,0c-10.399994,0 -18.899979,6.300003 -18.899979,14l0,17.5l118.200027,0l0,61.800003c0,19.899994 -21.900055,36.199982 -48.900055,36.199982l-125.699982,0l0,-33.199982l99.100006,0c10.599976,0 19.099976,-6.300018 19.099976,-14l0,-17.700012l-118.199982,0l0,-61.599991c0,-19.899994 21.899994,-36.199997 48.700012,-36.199997" fill="#4F2682"/>
  <path id="svg_3" d="m467.899994,174.649994l56.199982,0l0,126.5c0,19.899994 -21.899963,36.199982 -48.699982,36.199982l-125.399994,0l0,-162.299988l55.799988,0l0,129.399994l43,0c10.600006,0 19.100006,-6.299988 19.100006,-14.199982l0,-115.600006z" fill="#4F2682"/>
 </g>
</svg>