<?xml version="1.0"?>
<svg width="512" height="512" xmlns="http://www.w3.org/2000/svg">
 <metadata id="metadata7">image/svg+xml</metadata>

 <g>
  <title>background</title>
  <rect fill="none" id="canvas_background" height="514" width="514" y="-1" x="-1"/>
 </g>
 <g>
  <title>Layer 1</title>
  <path fill="white" fill-rule="evenodd" stroke-width="1px" d="m402.500061,256a146.500061,146.500061 0 1 1 -293.000122,0a146.500061,146.500061 0 1 1 293.000122,0z" id="path5522"/>
  <path fill="#0065a8" id="path1877" d="m234.106049,400.956451c-34.066437,-5.568359 -61.291656,-19.720428 -84.362213,-43.852631c-19.208145,-20.092072 -31.990524,-44.539764 -37.983833,-72.648315c-2.579376,-12.097198 -2.579376,-44.902817 0,-57c6.361282,-29.83429 19.295616,-53.732803 40.625221,-75.062408c21.261353,-21.261353 44.139893,-33.595177 74.458344,-40.140541c14.628677,-3.158142 43.616943,-3.14959 58.29248,0.017189c51.84729,11.187965 92.832123,47.476593 109.209381,96.695724c11.038208,33.173523 10.408295,66.007614 -1.91449,99.792953c-1.76593,4.841614 -3.496521,8.517212 -3.845764,8.167969c-0.349274,-0.349274 -1.535583,-14.210602 -2.636292,-30.802979l-2.001251,-30.167908l-18.593811,-0.271484l-18.593811,-0.2715l-1.983124,7.2715l-1.983154,7.271484l2.790619,0.5l2.790619,0.5l-8.92749,14c-4.910126,7.700012 -9.107178,14.449982 -9.326782,15c-1.065582,2.668854 -1.615265,-1.744934 -2.771667,-22.255554l-1.25415,-22.244446l-18.795685,0l-18.795715,0l-1.606201,5.75c-0.883423,3.162506 -1.826324,6.537506 -2.095337,7.5c-0.374298,1.339264 0.113495,1.75 2.078308,1.75c1.412048,0 2.567383,0.294495 2.567383,0.65448c0,0.359955 -5.512512,9.116821 -12.25,19.459717l-12.25,18.805267l-11.602142,0.040253c-10.463318,0.036316 -11.935608,-0.18396 -15,-2.244354c-4.066864,-2.734436 -6.052841,-7.722595 -5.242264,-13.166962c1.863235,-12.514954 11.890182,-23.548401 21.400192,-23.548401c3.085968,0 3.11264,0.04364 2.444214,4l-0.675812,4l8.451416,0l8.451385,0l2.708252,-9.75c1.489532,-5.362518 2.94278,-10.573822 3.229492,-11.580688c0.494049,-1.735107 -0.436859,-1.813446 -17.821747,-1.500015c-18.102631,0.32637 -18.428192,0.371078 -24.845856,3.412521c-7.471252,3.540741 -14.996185,10.575989 -18.493179,17.289764c-3.254791,6.248688 -3.100296,4.62619 0.871964,-9.157318l3.375916,-11.714264l-12.13324,0l-12.133224,0l-2.087021,7.448914l-2.087006,7.448914l3.20929,0.301086l3.209259,0.301086l-3.252411,11.304138c-1.788834,6.217285 -3.432495,11.484222 -3.652588,11.704285c-0.220078,0.220093 -4.142731,-8.354248 -8.71698,-19.054108l-8.316833,-19.454315l-11.353195,0l-11.353195,0l-2.042358,6.857788c-1.123276,3.77182 -2.042328,7.14682 -2.042328,7.5c0,0.35321 1.349991,0.642212 3,0.642212c1.649994,0 3,0.219055 3,0.486755c0,0.2677 -2.892548,10.9552 -6.427856,23.75c-3.535309,12.7948 -6.7341,24.500732 -7.108398,26.013245l-0.680573,2.75l8.9505,0l8.950485,0l4.406342,-16.5c2.423477,-9.075012 4.63205,-16.493378 4.907913,-16.48526c0.275864,0.008087 3.483826,7.320587 7.128799,16.25l6.627213,16.23526l10.372787,0.277588l10.372787,0.277588l4.396591,-15.777588c2.418121,-8.677673 4.668137,-16.092041 5,-16.476379c0.331863,-0.384369 0.626892,2.990662 0.655609,7.499969c0.061005,9.580627 2.267105,14.933746 7.936539,19.258026c6.368103,4.857178 9.347916,5.34964 32.657013,5.396912l21.645752,0.043884l3.208496,-5l3.208496,-5l13.895752,0l13.895752,0l0,5l0,5l11.942291,0l11.942322,0l2.807678,-4.998962l2.807709,-4.999023l14.121155,-0.000977l14.121185,-0.001038l0.663269,5l0.663269,5l8.465576,0c4.656036,0 8.465546,0.280518 8.465546,0.623383c0,0.342834 -2.077423,4.045135 -4.616486,8.227325c-20.792053,34.247284 -55.548981,58.780457 -95.184509,67.185913c-12.9664,2.749756 -39.129074,3.493073 -51.540588,1.464325zm58.341583,-102.959778c0,-1.52066 14.370026,-22.430511 15.103546,-21.977173c0.493042,0.304718 0.896454,5.477478 0.896454,11.495026l0,10.940979l-8,0c-4.399994,0 -8,-0.206482 -8,-0.458832zm59.166656,-1.345276c1.015961,-2.450928 13.452911,-21.144104 14.083344,-21.167755c0.412506,-0.015472 0.753906,2.559357 0.758698,5.721863c0.004761,3.162506 0.29245,8.112488 0.639282,11l0.630615,5.25l-8.222656,0c-4.52243,0 -8.072601,-0.361847 -7.889282,-0.804108z"/>
  <text font-size="12px" font-style="normal" font-weight="bold" fill="#0065a8" stroke-width="1px" font-family="Adrianne" id="text2855" y="234.00314" x="282.11066" xml:space="preserve">
   <tspan font-size="18px" font-weight="bold" fill="#0065a8" font-family="Arial" y="234.00314" x="282.11066" id="tspan2857">R</tspan>
  </text>
  <path fill="none" fill-rule="evenodd" stroke="#0065a8" stroke-width="3" d="m299.500275,227.768982a10.880636,10.880636 0 1 1 -21.761292,0a10.880636,10.880636 0 1 1 21.761292,0z" id="path2863"/>
 </g>
</svg>